<mxfile host="app.diagrams.net" modified="2023-07-24T08:55:09.609Z" agent="Mozilla/5.0 (Windows NT 10.0; Win64; x64) AppleWebKit/537.36 (KHTML, like Gecko) Chrome/114.0.0.0 Safari/537.36" version="21.6.5" etag="MehzZCwZbcH9lxJMGstt" type="github">
  <diagram name="페이지-1" id="Dif5lGtcfBxJ7Ua8B9UE">
    <mxGraphModel>
      <root>
        <mxCell id="0" />
        <mxCell id="1" parent="0" />
      </root>
    </mxGraphModel>
  </diagram>
</mxfile>
